<svg xmlns="http://www.w3.org/2000/svg" fill="none" viewBox="0 0 24 24">
  <path fill-rule="evenodd" clip-rule="evenodd" d="M16.282 6.066c-1.317-.824-2.738-1.242-4.425-1.266a8.025 8.025 0 00-2.695.518A9.808 9.808 0 006.231 7.14a12.271 12.271 0 00-3.112 4.333 1.257 1.257 0 000 1.068 12.504 12.504 0 002.564 3.799 10.02 10.02 0 002.961 2.115 7.82 7.82 0 005.206.515c1.376-.324 2.574-1.018 3.657-1.923 1.475-1.235 2.567-2.775 3.373-4.543a1.1 1.1 0 00-.004-1.006l-.178-.355c-.156-.315-.313-.63-.489-.932-.986-1.702-2.269-3.11-3.927-4.146zm-4.627-.235l.32-.03c1.366.033 2.636.387 3.803 1.134 1.87 1.194 3.222 2.853 4.155 4.885a.41.41 0 010 .368c-.57 1.312-1.389 2.448-2.376 3.46a8.67 8.67 0 01-3.167 2.106 6.718 6.718 0 01-1.815.394 6.92 6.92 0 01-3.533-.619 9.099 9.099 0 01-2.926-2.19 11.585 11.585 0 01-2.083-3.149.437.437 0 010-.387 11.636 11.636 0 012.224-3.296 9.4 9.4 0 012.878-2.086 6.277 6.277 0 011.807-.516c.237-.033.475-.053.713-.074zm.316 2.061c-2.249.005-4.018 1.886-3.993 4.107 0 .813.234 1.607.674 2.284a4.026 4.026 0 001.796 1.514 3.903 3.903 0 002.313.233 3.97 3.97 0 002.049-1.127c.56-.575.94-1.308 1.093-2.105a4.211 4.211 0 00-.23-2.375 4.087 4.087 0 00-1.477-1.842 3.927 3.927 0 00-2.225-.689zm-2.508 5.826a3.152 3.152 0 01-.505-1.72l-.004-.001a3.112 3.112 0 01.886-2.188 3 3 0 01.98-.668 2.956 2.956 0 012.827.295c.495.34.88.825 1.107 1.39a3.17 3.17 0 01.168 1.787c-.117.6-.405 1.15-.827 1.582a2.987 2.987 0 01-1.543.843 2.939 2.939 0 01-1.74-.18 3.03 3.03 0 01-1.349-1.14z" fill="url(#hfcu6IsR6J3da)"/>
  <defs>
    <linearGradient id="hfcu6IsR6J3da" x1="21" y1="4.8" x2="1.571" y2="7.094" gradientUnits="userSpaceOnUse">
      <stop offset=".07" stop-color="#1B6DFF"/>
      <stop offset=".953" stop-color="#1A92FF"/>
    </linearGradient>
  </defs>
</svg>
